HIERARCHY
ROOT Hips
{
	OFFSET 0.000000 8.830580 0.000000
	CHANNELS 6 Xposition Yposition Zposition Zrotation Yrotation Xrotation 
	JOINT Spine
	{
		OFFSET 0.000000 0.010000 0.000000
		CHANNELS 3 Zrotation Yrotation Xrotation
		JOINT Spine1
		{
			OFFSET 0.000000 2.459130 0.000000
			CHANNELS 3 Zrotation Yrotation Xrotation
			JOINT Neck
			{
				OFFSET 0.000000 2.484630 0.000000
				CHANNELS 3 Zrotation Yrotation Xrotation
				JOINT Head_virtual
				{
					OFFSET 0.000000 0.000000 0.000000
					CHANNELS 3 Zrotation Yrotation Xrotation
					JOINT Head
					{
						OFFSET 0.000000 0.927525 0.000000
						CHANNELS 3 Zrotation Yrotation Xrotation
						End Site
						{
							OFFSET 0.000000 0.000000 0.000000
						}
					}
				}
				JOINT LeftUpArm_virtual
				{
					OFFSET 0.000000 0.000000 0.000000
					CHANNELS 3 Zrotation Yrotation Xrotation
					JOINT LeftUpArm
					{
						OFFSET 1.248820 0.000000 0.000000
						CHANNELS 3 Zrotation Yrotation Xrotation
						JOINT LeftForeArm
						{
							OFFSET 2.597580 0.000000 0.000000
							CHANNELS 3 Zrotation Yrotation Xrotation
							JOINT LeftHand
							{
								OFFSET 2.455420 0.000000 0.000000
								CHANNELS 3 Zrotation Yrotation Xrotation
								End Site
								{
									OFFSET 0.000000 0.000000 0.000000
								}
							}
						}
					}
				}
				JOINT RightUpArm_virtual
				{
					OFFSET -0.000000 -0.000000 -0.000000
					CHANNELS 3 Zrotation Yrotation Xrotation
					JOINT RightUpArm
					{
						OFFSET -1.248820 -0.000000 -0.000000
						CHANNELS 3 Zrotation Yrotation Xrotation
						JOINT RightForeArm
						{
							OFFSET -2.597580 -0.000000 -0.000000
							CHANNELS 3 Zrotation Yrotation Xrotation
							JOINT RightHand
							{
								OFFSET -2.455420 -0.000000 -0.000000
								CHANNELS 3 Zrotation Yrotation Xrotation
								End Site
								{
									OFFSET 0.000000 0.000000 0.000000
								}
							}
						}
					}
				}
			}
		}
	}
	JOINT LeftUpLeg
	{
		OFFSET 1.271939 0.000000 0.000000
		CHANNELS 3 Zrotation Yrotation Xrotation
		JOINT LeftLowLeg
		{
			OFFSET 0.000000 -4.342910 0.000000
			CHANNELS 3 Zrotation Yrotation Xrotation
			JOINT LeftFoot
			{
				OFFSET 0.000000 -4.487670 0.000000
				CHANNELS 3 Zrotation Yrotation Xrotation
				JOINT LeftToeBase
				{
					OFFSET 0.000000 0.000000 1.515070
					CHANNELS 3 Zrotation Yrotation Xrotation
					End Site
					{
						OFFSET 0.000000 0.000000 0.000000
					}
				}
			}
		}
	}
	JOINT RightUpLeg
	{
		OFFSET -1.271939 0.000000 0.000000
		CHANNELS 3 Zrotation Yrotation Xrotation
		JOINT RightLowLeg
		{
			OFFSET 0.000000 -4.342910 0.000000
			CHANNELS 3 Zrotation Yrotation Xrotation
			JOINT RightFoot
			{
				OFFSET 0.000000 -4.487670 0.000000
				CHANNELS 3 Zrotation Yrotation Xrotation
				JOINT RightToeBase
				{
					OFFSET 0.000000 0.000000 1.515070
					CHANNELS 3 Zrotation Yrotation Xrotation
					End Site
					{
						OFFSET 0.000000 0.000000 0.000000
					}
				}
			}
		}
	}
}
MOTION
Frames: 10
Frame Time: 0.041667
-13.755309 7.912283 48.223000 -173.986774 -26.703513 167.939792 11.335485 11.509828 -6.194226 5.994090 3.097806 -2.836859 0.000000 0.000000 0.000000 -24.486094 33.707875 24.079249 -0.908098 2.544575 -96.885593 -29.006100 1.523020 -1.221860 8.737520 -20.637501 -21.353100 -180.000000 -81.089104 180.000000 71.508797 -31.662500 -15.366300 25.726500 10.831700 14.168100 -8.283970 66.509003 -11.466100 0.000000 82.848900 0.000000 -53.995701 38.297600 -10.567000 15.806430 38.041676 -29.002363 0.000000 0.000000 38.368301 -19.032138 -2.031389 4.673744 0.000000 0.000000 -36.587000 7.521575 -19.223127 -14.085176 0.000000 0.000000 60.027199 12.718660 -4.717669 -18.981554 0.000000 0.000000 -35.606199 
-13.753649 7.911765 48.221851 -174.014465 -26.964481 167.843700 11.208437 11.540118 -6.307530 5.684929 3.122964 -2.425935 0.000000 0.000000 0.000000 -24.569049 33.907296 23.724479 -0.663700 2.527305 -97.004333 -28.761900 1.579550 -1.369940 8.687140 -21.309099 -21.699699 180.000000 -80.795303 -180.000000 71.159599 -31.459900 -15.024500 25.727600 10.762200 13.877500 -8.121830 66.219299 -11.736500 0.000000 83.386101 0.000000 -53.970699 38.160000 -10.635200 15.821491 37.374542 -28.929188 0.000000 0.000000 38.322201 -18.876191 -1.831233 4.689501 0.000000 0.000000 -36.525101 7.457203 -19.385383 -13.992325 0.000000 0.000000 60.063499 12.766323 -4.823330 -19.034487 0.000000 0.000000 -35.558100 
-13.751206 7.910782 48.220963 -174.058587 -27.302142 167.723411 11.019439 11.534161 -6.425366 5.394341 3.114753 -1.898586 0.000000 0.000000 0.000000 -24.744495 34.123446 23.231572 -0.473033 2.414141 -97.158387 -28.572100 1.734240 -1.640850 8.782860 -22.178900 -22.001600 -180.000000 -80.478996 180.000000 71.196899 -31.132401 -14.963900 25.669901 10.746100 13.883100 -8.715890 65.718002 -12.902500 0.000000 84.154297 0.000000 -54.158298 38.159100 -10.484000 15.832035 36.474178 -28.829436 0.000000 0.000000 38.247299 -18.741273 -1.481413 4.695873 0.000000 0.000000 -36.573500 7.378790 -19.576657 -13.885440 0.000000 0.000000 60.116600 12.801356 -5.016084 -19.104387 0.000000 0.000000 -35.613600 
-13.747354 7.910004 48.221673 -174.074219 -27.650271 167.528526 10.887598 11.526946 -6.508593 5.023601 3.086803 -1.192400 0.000000 0.000000 0.000000 -24.934930 34.340139 22.649154 -0.412523 2.293007 -97.410650 -28.351999 1.933860 -1.859620 8.985140 -23.073200 -22.587400 180.000000 -80.000099 -180.000000 70.812500 -30.949200 -14.788200 25.581301 10.796500 13.676500 -9.026620 65.037498 -13.848700 0.000000 85.196098 0.000000 -54.368999 38.200199 -10.647100 15.879775 35.510347 -28.683437 0.000000 0.000000 38.147400 -18.432486 -1.096807 4.695762 0.000000 0.000000 -36.806299 7.329770 -19.715032 -13.709097 0.000000 0.000000 60.118198 12.855339 -5.261988 -19.197251 0.000000 0.000000 -35.670500 
-13.743062 7.908531 48.223413 -174.015847 -28.033878 167.364598 10.881552 11.579811 -6.562420 4.454189 3.107671 -0.543246 0.000000 0.000000 0.000000 -25.160746 34.564340 21.953269 -0.180990 2.121729 -97.602975 -28.070400 2.125530 -2.145170 9.323440 -24.096800 -22.967100 -180.000000 -79.420998 180.000000 71.053703 -30.514900 -14.840900 25.547300 10.601400 13.351300 -9.447910 64.432503 -14.856000 0.000000 86.317001 0.000000 -54.669899 38.131199 -10.927100 15.908861 34.536605 -28.694493 0.000000 0.000000 38.117599 -18.114953 -0.904536 4.711989 0.000000 0.000000 -36.894100 7.371332 -19.826786 -13.630263 0.000000 0.000000 60.149200 12.931496 -5.528543 -19.248741 0.000000 0.000000 -35.691500 
-13.736433 7.906261 48.225577 -173.899976 -28.478485 167.107180 10.889659 11.674290 -6.481168 3.865213 3.178100 0.015034 0.000000 0.000000 0.000000 -25.330994 34.697418 21.360541 0.060875 1.964331 -97.811899 -27.730801 2.221270 -2.375510 9.623860 -25.071199 -23.465000 180.000000 -78.684998 180.000000 70.852402 -30.357201 -14.584300 25.464701 10.230200 13.200500 -10.411900 63.785400 -16.449200 0.000000 87.407204 0.000000 -55.580700 37.514999 -12.160600 16.027939 33.397261 -28.676492 0.000000 0.000000 38.099400 -17.979039 -0.778477 4.753940 0.000000 0.000000 -36.901100 7.448880 -20.036433 -13.493415 0.000000 0.000000 60.171101 12.923634 -5.865901 -19.309484 0.000000 0.000000 -35.666901 
-13.728619 7.903158 48.228326 -173.778915 -28.954850 166.852576 10.740653 11.705748 -6.372617 3.524640 3.213882 0.531524 0.000000 0.000000 0.000000 -25.556370 34.634418 20.861442 0.166749 1.641516 -97.962727 -27.486700 2.478720 -2.557760 9.994820 -26.136900 -24.108101 -180.000000 -77.962997 180.000000 70.818497 -30.400000 -14.341800 25.234600 9.788090 12.649800 -10.706700 63.372799 -17.325500 0.000000 88.395897 0.000000 -55.828098 37.247200 -12.833200 16.133669 32.175582 -28.683718 0.000000 0.000000 38.059898 -17.798507 -0.646941 4.842510 0.000000 0.000000 -37.025801 7.533211 -20.248779 -13.384953 0.000000 0.000000 60.209801 12.949993 -6.183079 -19.355743 0.000000 0.000000 -35.835199 
-13.719055 7.900508 48.230684 -173.625007 -29.445762 166.529880 10.580548 11.729053 -6.175460 3.213005 3.247726 0.969571 0.000000 0.000000 0.000000 -25.717382 34.635923 20.542267 0.256041 1.445859 -98.145319 -27.316601 2.690580 -2.643340 10.541300 -27.070299 -24.823099 180.000000 -77.193001 -180.000000 70.716599 -30.355801 -14.108700 24.996799 9.347520 11.985800 -10.772400 62.997200 -18.007999 0.000000 89.292900 0.000000 -55.618599 37.478802 -11.810100 16.274593 31.024787 -28.655674 0.000000 0.000000 37.995201 -17.614633 -0.597249 5.036295 0.000000 0.000000 -37.217300 7.630163 -20.482875 -13.200311 0.000000 0.000000 60.201698 12.982310 -6.493794 -19.415613 0.000000 0.000000 -35.843800 
-13.709509 7.898818 48.233787 -173.487137 -29.887574 166.332488 10.359848 11.803532 -6.079308 2.990769 3.344141 1.416042 0.000000 0.000000 0.000000 -25.851544 34.538807 20.306524 0.438855 1.211860 -98.319215 -27.221399 2.892980 -2.715420 11.246700 -28.009800 -25.330500 -180.000000 -76.510002 180.000000 71.328400 -29.864401 -14.298100 24.821899 8.813530 11.262300 -11.082200 62.740299 -18.739799 -180.000000 89.999802 -180.000000 -55.966801 37.125702 -11.853500 16.334446 30.032823 -28.718278 0.000000 0.000000 37.866299 -17.757258 -0.698287 5.257732 0.000000 0.000000 -37.261400 7.741600 -20.751338 -13.137320 0.000000 0.000000 60.186001 12.957013 -6.780898 -19.456018 0.000000 0.000000 -35.749201 
-13.699327 7.897000 48.234302 -173.299353 -30.332688 166.046849 10.126732 11.837601 -5.940712 2.857871 3.401233 1.858865 0.000000 0.000000 0.000000 -25.909679 34.335627 20.167853 0.445378 1.008558 -98.463349 -27.075100 3.094630 -2.862030 11.808600 -28.849701 -25.827299 180.000000 -75.900002 -180.000000 71.708801 -29.628000 -14.287400 24.526501 8.399970 11.014400 -12.050000 62.433102 -20.298401 180.000000 89.426003 180.000000 -56.350700 36.689602 -12.928100 16.478402 29.134295 -28.721111 0.000000 0.000000 37.783501 -17.730257 -0.857656 5.452233 0.000000 0.000000 -37.394199 7.852513 -21.089738 -12.986215 0.000000 0.000000 60.160301 12.958216 -6.973426 -19.464830 0.000000 0.000000 -35.779100 
